<svg width="40" height="40" viewBox="0 0 40 40" fill="none" xmlns="http://www.w3.org/2000/svg">
<rect width="40" height="40" fill="white"/>
<circle cx="20" cy="20" r="17.5" stroke="black"/>
<path d="M20.6594 12.8137C21.5805 16.5142 24.5935 20.2259 19.3231 24.2586C19.2774 23.641 19.2506 23.0211 19.2419 22.4025L20.0537 21.5999C20.1527 21.5031 20.1525 21.3441 20.0559 21.2481C19.9591 21.1491 19.798 21.1508 19.7041 21.2459L19.2436 21.6978C19.2493 21.0917 19.2748 20.4858 19.3181 19.8797L20.3907 18.997C20.4952 18.9077 20.5131 18.7489 20.4234 18.644C20.3361 18.538 20.181 18.5208 20.0729 18.6096L19.3774 19.1845C19.3992 18.9397 19.4246 18.6936 19.4532 18.4484C19.5059 18.0156 19.5723 17.5822 19.6421 17.1483L20.3738 16.6401L20.3801 16.6356C20.4886 16.5561 20.516 16.4017 20.4371 16.2896C20.3581 16.1775 20.202 16.1476 20.0878 16.2281L19.7666 16.4507C19.8555 15.9913 19.9512 15.5334 20.0605 15.0775C20.0942 14.9448 20.0103 14.8102 19.8739 14.7759C19.7412 14.7422 19.6066 14.8261 19.5723 14.9624C19.4592 15.4262 19.362 15.8987 19.2715 16.3688L19.0428 16.0393C18.9623 15.9252 18.8077 15.8973 18.6929 15.9769C18.5803 16.0595 18.5524 16.2141 18.6313 16.3262L19.1474 17.0687C19.0723 17.5085 19.0079 17.9499 18.9541 18.3899C18.9239 18.6364 18.8999 18.8827 18.8762 19.1275L18.3073 18.4403C18.2201 18.3343 18.0628 18.3186 17.9568 18.4059C17.8508 18.4931 17.8345 18.654 17.9242 18.7588L18.819 19.8437C18.774 20.4606 18.7486 21.078 18.7407 21.6984L18.2852 21.2374C18.1883 21.1384 18.0264 21.1389 17.9319 21.2331C17.8347 21.3324 17.8318 21.4898 17.9291 21.5885L18.7408 22.4082C18.7483 23.0078 18.7735 23.6046 18.8172 24.2021C14.8126 20.6779 15.5201 16.3113 20.264 12.6761C20.4063 12.5687 20.6151 12.6399 20.6585 12.8125L20.6594 12.8137Z" fill="black"/>
<path d="M19.3244 24.2578C19.3712 24.8727 19.4363 25.4863 19.5186 26.0981C19.5315 26.1916 19.488 26.2822 19.4178 26.3337C19.3858 26.3572 19.3468 26.3729 19.303 26.3802C19.168 26.3992 19.0414 26.3022 19.0208 26.1652C18.9316 25.5143 18.8642 24.8583 18.8184 24.2038C18.8563 24.238 18.8936 24.2733 18.934 24.3057C19.0207 24.3814 19.1586 24.3864 19.2514 24.3152C19.278 24.2957 19.3013 24.2786 19.3243 24.2585L19.3244 24.2578Z" fill="black"/>
</svg>
