<svg width="40" height="40" viewBox="0 0 40 40" fill="none" xmlns="http://www.w3.org/2000/svg">
<rect width="40" height="40" fill="white"/>
<circle cx="20" cy="20" r="9.5" fill="black" stroke="black"/>
<circle cx="20" cy="20" r="2" fill="white"/>
<path d="M25.0068 16.2694C25.0351 16.203 25.0626 16.1364 25.0986 16.0703C25.1266 16.0131 25.157 15.9577 25.1906 15.9031C25.3963 15.5534 25.7636 15.1145 26.3632 14.8522C26.2954 15.4324 26.5716 16.4157 26.9731 18.0362C27.306 19.2912 26.8013 20.0644 26.516 20.3857C26.5289 20.1282 26.516 19.7791 26.419 19.364C26.373 19.1729 26.3212 18.987 26.2705 18.8066C26.1428 18.3505 26.0182 17.9186 26.0431 17.5926C26.0508 17.4908 25.9787 17.3986 25.8821 17.3864C25.787 17.3732 25.7001 17.4462 25.6924 17.5483C25.6622 17.9469 25.7978 18.4142 25.937 18.9077C25.9868 19.0845 26.0383 19.2672 26.0834 19.4534C26.1952 19.9262 26.1849 20.2997 26.1586 20.5287C26.1284 20.5375 26.0982 20.5457 26.068 20.5555C25.7415 20.4333 25.4287 20.0929 25.1853 19.5839C24.7376 18.6485 24.6173 17.3873 24.9005 16.5511C24.934 16.4519 24.9666 16.3597 25.0068 16.2694ZM20.8631 12C21.2186 12.4336 22.0458 12.8389 23.5853 13.6473C24.6152 14.233 24.8566 15.0142 24.8595 15.6176C24.6722 15.4187 24.4139 15.1941 24.0661 14.994C23.9157 14.9083 23.7638 14.8278 23.6153 14.7497C23.1771 14.519 22.7606 14.3054 22.5392 14.0546C22.4722 13.9786 22.3553 13.9664 22.2774 14.0265C22.2 14.0869 22.1907 14.1976 22.2578 14.274C22.5282 14.582 22.9786 14.8146 23.4524 15.0647C23.598 15.1416 23.7473 15.2209 23.8941 15.3045C24.2894 15.5325 24.5565 15.7944 24.7244 15.9984C24.7182 16.0123 24.7115 16.0253 24.7052 16.0389C24.2688 16.2054 23.6148 16.1422 22.934 15.8619C22.0386 15.4937 21.3168 14.8398 21.0198 14.1358C20.985 14.0531 20.9548 13.9726 20.9278 13.8888C20.9 13.8095 20.8748 13.7285 20.8552 13.6483C20.837 13.5805 20.8229 13.5146 20.8104 13.4473C20.6909 12.8235 20.7742 12.3104 20.8631 12ZM14.8516 13.638C15.4315 13.7055 16.4137 13.4296 18.0333 13.0284C19.2873 12.6971 20.0606 13.1991 20.383 13.4852C20.1243 13.4722 19.7751 13.4852 19.3609 13.5822C19.1716 13.6277 18.9872 13.6794 18.8085 13.7293C18.3509 13.8577 17.9198 13.9827 17.5918 13.9578C17.4919 13.9482 17.398 14.0217 17.3856 14.1185C17.3733 14.2153 17.4459 14.3003 17.5477 14.3082C17.5937 14.3118 17.6402 14.313 17.6879 14.3123C18.0539 14.307 18.4717 14.1863 18.9096 14.0627C19.0852 14.0129 19.2665 13.9621 19.4502 13.9173C19.9226 13.8057 20.2985 13.816 20.5287 13.8423C20.5376 13.8723 20.5455 13.9017 20.555 13.931C20.4345 14.2567 20.0965 14.5686 19.5911 14.8122C18.6554 15.2628 17.3908 15.3838 16.5502 15.0997C16.4638 15.0712 16.3634 15.0369 16.2688 14.994C16.2024 14.9658 16.1358 14.938 16.0699 14.9023C16.0129 14.8743 15.9578 14.8441 15.9027 14.8101C15.553 14.6048 15.1139 14.238 14.8516 13.638ZM12 19.1369C12.4317 18.781 12.8377 17.9538 13.6471 16.4162C14.2324 15.3876 15.0116 15.1457 15.616 15.1421C15.4265 15.3205 15.1975 15.5797 14.9937 15.9352C14.9081 16.0856 14.8279 16.2373 14.7498 16.3855C14.5191 16.8239 14.3052 17.2407 14.0544 17.462C13.9784 17.5291 13.966 17.6458 14.0264 17.7236C14.0604 17.7675 14.1104 17.7895 14.1612 17.7883C14.2007 17.7873 14.2403 17.7725 14.2738 17.7435C14.5823 17.4731 14.8149 17.0222 15.065 16.5484C15.1417 16.4028 15.221 16.2538 15.3046 16.1067C15.5425 15.6928 15.8155 15.4257 15.9981 15.2769C16.0117 15.2834 16.0252 15.2901 16.039 15.2959C16.206 15.7323 16.1425 16.3865 15.8618 17.0673C15.4938 17.9625 14.8394 18.684 14.1344 18.9817C14.0544 19.0162 13.9746 19.0464 13.8924 19.0725C13.8096 19.1008 13.7291 19.1242 13.6479 19.1458C13.5801 19.1645 13.5123 19.1781 13.445 19.1903C12.8252 19.3101 12.3114 19.226 12 19.1369ZM14.9944 23.7325C14.9654 23.8006 14.9345 23.8681 14.9024 23.9316C14.8744 23.9886 14.8442 24.0435 14.8102 24.0988C14.6041 24.4485 14.2374 24.8874 13.6376 25.1499C13.7051 24.5695 13.4292 23.5867 13.0277 21.9657C12.6957 20.7141 13.1968 19.9416 13.4823 19.6186C13.4692 19.8745 13.4823 20.2211 13.5815 20.6379C13.6275 20.8286 13.6792 21.0147 13.7298 21.1944C13.8577 21.6507 13.982 22.0828 13.9571 22.4091C13.9495 22.5109 14.0213 22.6031 14.1181 22.6153C14.1236 22.616 14.1296 22.6163 14.1351 22.6165C14.2247 22.6189 14.3006 22.549 14.3081 22.4532C14.338 22.0543 14.2029 21.5867 14.0635 21.093C14.0134 20.9165 13.9622 20.734 13.9171 20.5476C13.8007 20.0618 13.8163 19.6831 13.8414 19.473C13.8718 19.4641 13.9025 19.4558 13.9329 19.4459C14.259 19.5686 14.5716 19.9095 14.8149 20.419C15.2627 21.3549 15.3829 22.6156 15.0998 23.4508C15.0667 23.5515 15.0315 23.6446 14.9944 23.7325ZM19.1364 28C18.7805 27.5671 17.9533 27.1618 16.4159 26.3543C15.3872 25.7691 15.1453 24.9887 15.1419 24.3855C15.3204 24.575 15.5794 24.8038 15.9351 25.0074C16.0879 25.0946 16.2422 25.1768 16.3933 25.256C16.8286 25.485 17.2425 25.698 17.4622 25.9471C17.4996 25.99 17.5537 26.0125 17.6069 26.0132C17.6483 26.0137 17.6898 26.0013 17.7236 25.9751C17.8012 25.9148 17.8103 25.8044 17.7434 25.7277C17.4744 25.4213 17.027 25.1897 16.556 24.9413C16.4077 24.863 16.2563 24.7827 16.1064 24.6967C15.6922 24.4588 15.4258 24.186 15.2766 24.0035C15.2828 23.9898 15.2895 23.9764 15.2955 23.9625C15.7312 23.796 16.3838 23.8593 17.0629 24.1386C17.9588 24.5068 18.682 25.1612 18.9814 25.8676C19.0159 25.9478 19.0459 26.0276 19.0722 26.1093C19.1003 26.1922 19.1237 26.2729 19.1455 26.3541C19.164 26.4219 19.1776 26.4894 19.1901 26.5568C19.3094 27.1741 19.2255 27.6881 19.1364 28ZM25.1496 26.3637C24.5689 26.2957 23.5861 26.5718 21.9653 26.9733C20.7115 27.3058 19.938 26.8023 19.6165 26.517C19.6668 26.5196 19.7197 26.5213 19.777 26.5213C20.0125 26.5215 20.3042 26.4976 20.6379 26.4195C20.8284 26.3735 21.014 26.3218 21.1937 26.2715C21.6503 26.1435 22.0834 26.0185 22.4092 26.0437C22.5136 26.0525 22.6032 25.9795 22.6154 25.8827C22.6279 25.7859 22.555 25.7009 22.4532 25.6932C22.0532 25.6637 21.5868 25.7986 21.0926 25.9383C20.9163 25.9881 20.7337 26.0393 20.5486 26.0844C20.0752 26.1962 19.7015 26.1859 19.473 26.1596C19.4644 26.1294 19.456 26.0992 19.4462 26.0688C19.5686 25.7423 19.909 25.4297 20.4178 25.1863C21.353 24.7386 22.6147 24.6184 23.4505 24.9018C23.5496 24.9346 23.6416 24.9669 23.7322 25.0072C23.7995 25.0357 23.8647 25.0639 23.9313 25.0989C23.9885 25.1272 24.0434 25.1571 24.0985 25.1909C24.4482 25.3971 24.8871 25.7636 25.1496 26.3637ZM26.3545 23.5855C25.7672 24.615 24.986 24.8565 24.384 24.8598C24.5828 24.6728 24.8075 24.4145 25.0078 24.0665C25.0935 23.9158 25.174 23.7637 25.2524 23.6152C25.4831 23.1773 25.6967 22.7607 25.9473 22.5396C26.023 22.4726 26.0357 22.3559 25.9753 22.2778C25.9147 22.2 25.8038 22.1911 25.7279 22.2579C25.4198 22.5281 25.1872 22.9785 24.9374 23.452C24.8602 23.5979 24.7812 23.7474 24.6971 23.8945C24.469 24.2904 24.2072 24.5566 24.0034 24.7245C23.9899 24.7183 23.9763 24.7116 23.9629 24.7056C23.7959 24.2691 23.8594 23.6149 24.1401 22.9342C24.5081 22.0387 25.1623 21.3172 25.8675 21.0195C25.948 20.985 26.0275 20.9551 26.1095 20.9287C26.1924 20.9004 26.2728 20.877 26.3536 20.8554C26.4218 20.8372 26.4896 20.8228 26.557 20.8109C27.1731 20.6918 27.6876 20.7756 28 20.8645C27.5671 21.2214 27.1618 22.0483 26.3545 23.5855Z" fill="white"/>
<circle cx="20" cy="20" r="15" stroke="black" stroke-width="1.3"/>
<circle cx="20" cy="20" r="11.25" stroke="black" stroke-width="0.5" stroke-miterlimit="16" stroke-linecap="square" stroke-dasharray="2 2"/>
<rect x="17" y="3" width="6" height="4" fill="white"/>
<rect x="17" y="33" width="6" height="4" fill="white"/>
<rect x="33" y="17" width="4" height="6" fill="white"/>
<rect x="3" y="17" width="4" height="6" fill="white"/>
<path d="M18 3.77419H19.4194V6.93935L20.1326 6.95V3.77419H21.5484L19.7742 2L18 3.77419Z" fill="black"/>
<path d="M36.475 22V20.5806H33.3099L33.2992 19.8674H36.475V18.4516L38.2492 20.2258L36.475 22Z" fill="black"/>
<path d="M3.07339 22V20.5806H6.23855L6.24919 19.8674H3.07339V18.4516L1.29919 20.2258L3.07339 22Z" fill="black"/>
<path d="M18 36.1758H19.4194V33.0106L20.1326 33V36.1758H21.5484L19.7742 37.95L18 36.1758Z" fill="black"/>
</svg>
