<svg width="40" height="40" viewBox="0 0 40 40" fill="none" xmlns="http://www.w3.org/2000/svg">
<g clip-path="url(#clip0_17_57)">
<rect width="40" height="40" fill="white"/>
<path d="M6.67626 32.7455L10.54 29.0046L6.6927 28.9424C6.45238 30.1959 6.44693 31.4879 6.67626 32.7455ZM19.4626 21.397L16.369 24.3923L16.2646 30.8542L16.51 30.6245L16.5106 30.6233C17.8486 29.329 18.76 27.7537 19.2369 26.0809C19.6704 24.5587 19.7463 22.9512 19.4626 21.397ZM15.6144 25.1223L11.8095 28.8067L11.7379 33.2378L11.8818 33.2026C13.1665 32.8804 14.4043 32.3039 15.5117 31.4755L15.6144 25.1223ZM11.0551 29.5373L7.19132 33.2776C8.44091 33.5475 9.73233 33.5837 10.9929 33.384L11.0551 29.5373ZM15.8532 23.8598L18.9468 20.8644C17.4025 20.5307 15.7934 20.5548 14.258 20.9388C12.5707 21.3614 10.9668 22.2215 9.62996 23.517L9.62882 23.5176L9.39124 23.7554L15.8532 23.8598ZM11.2939 28.2741L15.0992 24.5902L8.74589 24.4876C7.88224 25.5678 7.26601 26.7862 6.90247 28.0604L6.86321 28.2025L11.2939 28.2741Z" fill="black"/>
<path d="M32.8464 6.57538L29.1055 10.4391L29.0433 6.59182C30.2968 6.3515 31.5888 6.34605 32.8464 6.57538ZM21.4979 19.3617L24.4932 16.2681L30.9551 16.1637L30.7254 16.4091L30.7242 16.4097C29.4299 17.7477 27.8546 18.6591 26.1818 19.136C24.6596 19.5695 23.0521 19.6454 21.4979 19.3617ZM25.2232 15.5135L28.9076 11.7086L33.3387 11.637L33.3035 11.7809C32.9813 13.0657 32.4048 14.3034 31.5764 15.4108L25.2232 15.5135ZM29.6382 10.9542L33.3785 7.09044C33.6484 8.34003 33.6846 9.63145 33.4849 10.8921L29.6382 10.9542ZM23.9607 15.7523L20.9653 18.846C20.6316 17.3016 20.6557 15.6926 21.0397 14.1572C21.4623 12.4699 22.3224 10.8659 23.6179 9.52908L23.6185 9.52794L23.8563 9.29036L23.9607 15.7523ZM28.375 11.193L24.6911 14.9983L24.5885 8.64501C25.6687 7.78136 26.8871 7.16513 28.1613 6.80159L28.3034 6.76233L28.375 11.193Z" fill="black"/>
<path d="M7.29418 6.62822L11.097 10.4311V6.58325C9.83984 6.3632 8.54792 6.37861 7.29418 6.62822ZM18.8477 19.2296L15.8028 16.1848H9.34007L9.57378 16.4264L9.57491 16.427C10.8907 17.7439 12.4805 18.6298 14.1607 19.0796C15.6897 19.4884 17.2983 19.5384 18.8477 19.2296ZM15.0607 15.4421L11.3154 11.6972H6.88369L6.92122 11.8405C7.2641 13.1198 7.86056 14.3481 8.7067 15.442L15.0607 15.4421ZM10.5727 10.9547L6.77044 7.15182C6.52083 8.4056 6.50548 9.69743 6.72553 10.9547H10.5727ZM16.327 15.6604L19.3719 18.7053C19.6806 17.1558 19.6306 15.5473 19.2218 14.0183C18.772 12.3381 17.8861 10.7483 16.5692 9.4325L16.5686 9.43137L16.3269 9.19766L16.327 15.6604ZM11.8395 11.173L15.5845 14.9183V8.56422C14.4905 7.71813 13.2623 7.12166 11.9823 6.77874L11.8396 6.74178L11.8395 11.173Z" fill="black"/>
<path d="M33.4587 32.7927L29.6558 28.9899H33.5036C33.7237 30.2471 33.7083 31.539 33.4587 32.7927ZM20.8572 21.2392L23.9021 24.2841V30.7468L23.6605 30.5131L23.6599 30.512C22.343 29.1962 21.4571 27.6064 21.0073 25.9262C20.5985 24.3972 20.5485 22.7886 20.8572 21.2392ZM24.6448 25.0262L28.3897 28.7715V33.2032L28.2464 33.1657C26.9671 32.8228 25.7388 32.2264 24.6449 31.3802L24.6448 25.0262ZM29.1322 29.5142L32.9351 33.3165C31.6813 33.5661 30.3895 33.5814 29.1322 33.3614V29.5142ZM24.4265 23.7599L21.3816 20.715C22.9311 20.4063 24.5396 20.4563 26.0686 20.8652C27.7488 21.3149 29.3386 22.2008 30.6544 23.5178L30.6555 23.5183L30.8892 23.76L24.4265 23.7599ZM28.9139 28.2474L25.1685 24.5025H31.5227C32.3688 25.5965 32.9652 26.8246 33.3082 28.1046L33.3451 28.2473L28.9139 28.2474Z" fill="black"/>
</g>
<defs>
<clipPath id="clip0_17_57">
<rect width="40" height="40" fill="white"/>
</clipPath>
</defs>
</svg>
