<svg width="40" height="40" viewBox="0 0 40 40" fill="none" xmlns="http://www.w3.org/2000/svg">
<rect width="40" height="40" fill="white"/>
<path d="M1.65812 19.683L7.03545 19.7699L4.35892 17.0055C3.30265 17.7219 2.38522 18.6316 1.65812 19.683ZM18.724 20.6997L14.4185 20.6302L9.77543 25.1256L10.1114 25.1367L10.1126 25.1363C11.974 25.1672 13.7324 24.6978 15.2524 23.8522C16.6353 23.0823 17.8257 21.9993 18.724 20.6997ZM13.3687 20.6128L8.07301 20.5276L4.88915 23.6103L5.01578 23.6871C6.15204 24.3677 7.43492 24.8353 8.80373 25.0326L13.3687 20.6128ZM7.02297 20.5108L1.64605 20.4235C2.33885 21.4979 3.22641 22.4367 4.25902 23.1868L7.02297 20.5108ZM14.4303 19.8889L18.7359 19.9584C17.8799 18.6304 16.7251 17.5097 15.3678 16.6956C13.8759 15.8013 12.1336 15.2753 10.2722 15.2461L10.271 15.2457L9.93484 15.2459L14.4303 19.8889ZM8.08499 19.7864L13.3807 19.8723L8.9608 15.3072C7.5863 15.4604 6.28903 15.8861 5.13095 16.5301L5.0027 16.6028L8.08499 19.7864Z" fill="black"/>
<path d="M38.6683 19.683L33.2909 19.7699L35.9675 17.0055C37.0237 17.7219 37.9412 18.6316 38.6683 19.683ZM21.6023 20.6998L25.9079 20.6302L30.551 25.1256L30.215 25.1367L30.2137 25.1363C28.3524 25.1672 26.594 24.6978 25.074 23.8522C23.6911 23.0823 22.5007 21.9993 21.6023 20.6998ZM26.9576 20.6128L32.2534 20.5276L35.4372 23.6103L35.3106 23.6871C34.1744 24.3677 32.8915 24.8353 31.5227 25.0326L26.9576 20.6128ZM33.3034 20.5108L38.6803 20.4235C37.9875 21.4979 37.1 22.4367 36.0674 23.1868L33.3034 20.5108ZM25.896 19.8889L21.5905 19.9584C22.4465 18.6305 23.6013 17.5097 24.9586 16.6956C26.4505 15.8013 28.1928 15.2753 30.0542 15.2461L30.0554 15.2457L30.3915 15.2459L25.896 19.8889ZM32.2414 19.7864L26.9457 19.8723L31.3656 15.3072C32.7401 15.4604 34.0374 15.8861 35.1954 16.5301L35.3237 16.6028L32.2414 19.7864Z" fill="black"/>
<path d="M20.5628 1.65224L20.5628 7.03028L23.2836 4.30946C22.5502 3.26489 21.6258 2.36227 20.5628 1.65224ZM19.8218 18.7324V14.4262L15.2519 9.85639L15.2463 10.1925L15.2467 10.1937C15.2459 12.0553 15.7437 13.8059 16.6137 15.3121C17.4058 16.6823 18.5079 17.8551 19.8218 18.7324ZM19.8222 13.3764L19.8219 8.07994L16.6882 4.94628L16.6134 5.07413C15.9512 6.22123 15.5045 7.5115 15.3293 8.88332L19.8222 13.3764ZM19.8218 7.02976L19.8222 1.65214C18.7591 2.3622 17.8348 3.2648 17.1014 4.30939L19.8218 7.02976ZM20.5632 14.4261L20.5632 18.7323C21.8772 17.8549 22.9791 16.6822 23.7712 15.3119C24.6413 13.8058 25.1391 12.0552 25.1382 10.1936L25.1386 10.1924L25.133 9.85623L20.5632 14.4261ZM20.5632 8.07994L20.5629 13.3764L25.0559 8.8833C24.8806 7.51146 24.4339 6.22124 23.7714 5.0737L23.6966 4.94665L20.5632 8.07994Z" fill="black"/>
<path d="M20.5627 38.6544L20.5627 33.2764L23.2836 35.9972C22.5502 37.0418 21.6258 37.9444 20.5627 38.6544ZM19.8217 21.5743V25.8804L15.2519 30.4503L15.2463 30.1141L15.2467 30.1129C15.2459 28.2514 15.7436 26.5008 16.6137 24.9946C17.4058 23.6243 18.5078 22.4516 19.8217 21.5743ZM19.8222 26.9303L19.8218 32.2267L16.6882 35.3604L16.6134 35.2325C15.9512 34.0854 15.5044 32.7952 15.3293 31.4234L19.8222 26.9303ZM19.8217 33.2769L19.8222 38.6545C18.7591 37.9445 17.8348 37.0419 17.1014 35.9973L19.8217 33.2769ZM20.5631 25.8805L20.5631 21.5744C21.8771 22.4518 22.9791 23.6245 23.7712 24.9948C24.6413 26.5009 25.139 28.2515 25.1382 30.1131L25.1386 30.1143L25.133 30.4504L20.5631 25.8805ZM20.5631 32.2267L20.5628 26.9303L25.0559 31.4234C24.8806 32.7952 24.4339 34.0854 23.7713 35.233L23.6965 35.36L20.5631 32.2267Z" fill="black"/>
</svg>
