<svg width="40" height="40" viewBox="0 0 40 40" fill="none" xmlns="http://www.w3.org/2000/svg">
<rect width="40" height="40" fill="white"/>
<path d="M38.5405 21.3396C33.2211 23.2218 28.1824 28.1865 21.4944 20.9969C22.3976 20.842 23.3068 20.7144 24.2166 20.6138L25.514 21.6953C25.6707 21.8274 25.9048 21.8045 26.0324 21.6487C26.1645 21.492 26.1391 21.2551 25.9857 21.1302L25.2548 20.5162C26.1482 20.4384 27.0443 20.39 27.9431 20.3677L29.3954 21.8221C29.5418 21.9633 29.7782 21.967 29.9199 21.8201C30.0637 21.6765 30.0671 21.4455 29.9209 21.2989L28.9754 20.3562C29.339 20.3537 29.705 20.3561 30.0703 20.3634C30.7153 20.3795 31.3629 20.4158 32.012 20.457L32.8643 21.4625L32.8719 21.471C33.0044 21.6195 33.2356 21.6381 33.3895 21.5058C33.5434 21.3736 33.5653 21.1394 33.4306 20.9827L33.0571 20.5413C33.7463 20.6069 34.4344 20.6828 35.1213 20.7791C35.3215 20.8099 35.5079 20.6671 35.539 20.4615C35.5698 20.2612 35.427 20.0749 35.2214 20.0437C34.5223 19.943 33.8127 19.867 33.1073 19.8004L33.5601 19.4168C33.7168 19.282 33.736 19.0503 33.6023 18.8926C33.4647 18.7384 33.233 18.7193 33.0792 18.8515L32.0589 19.7171C31.4005 19.6688 30.7413 19.6367 30.0855 19.62C29.7183 19.6104 29.3521 19.6101 28.9881 19.61L29.9194 18.6746C30.0632 18.531 30.064 18.2972 29.9204 18.1535C29.7768 18.0097 29.5377 18.0086 29.3959 18.1555L27.9252 19.6274C27.0102 19.6488 26.0973 19.699 25.1824 19.7755L25.7968 19.0392C25.9288 18.8825 25.9051 18.644 25.7529 18.5182C25.5928 18.3892 25.3607 18.4073 25.2291 18.5646L24.137 19.8765C23.255 19.9727 22.3796 20.0946 21.5058 20.2438C26.1276 13.8452 32.6592 14.2672 38.6869 20.7378C38.8655 20.9321 38.7902 21.2497 38.5421 21.3382L38.5405 21.3396Z" fill="black"/>
<path d="M2.39853 21.3396C7.71788 23.2218 12.7566 28.1865 19.4446 20.9969C18.5414 20.842 17.6322 20.7144 16.7224 20.6138L15.425 21.6953C15.2683 21.8274 15.0342 21.8045 14.9066 21.6487C14.7745 21.492 14.7999 21.2551 14.9533 21.1302L15.6842 20.5162C14.7908 20.4384 13.8947 20.39 12.9959 20.3677L11.5436 21.8221C11.3971 21.9633 11.1608 21.967 11.0191 21.8201C10.8753 21.6765 10.8719 21.4455 11.0181 21.2989L11.9636 20.3562C11.6 20.3537 11.234 20.3561 10.8687 20.3634C10.2237 20.3795 9.57605 20.4158 8.92704 20.457L8.0747 21.4625L8.06708 21.471C7.93457 21.6195 7.70338 21.6381 7.5495 21.5058C7.39562 21.3736 7.37366 21.1394 7.50842 20.9827L7.88191 20.5413C7.1927 20.6069 6.50463 20.6828 5.81772 20.7791C5.61748 20.8099 5.43113 20.6671 5.4 20.4615C5.36917 20.2612 5.51197 20.0749 5.71759 20.0437C6.41666 19.943 7.12634 19.867 7.83169 19.8004L7.37888 19.4168C7.22216 19.282 7.20304 19.0503 7.33667 18.8926C7.47427 18.7384 7.70596 18.7193 7.85984 18.8515L8.88012 19.7171C9.53845 19.6688 10.1977 19.6367 10.8535 19.62C11.2207 19.6104 11.5869 19.6101 11.9509 19.61L11.0195 18.6746C10.8758 18.531 10.875 18.2972 11.0186 18.1535C11.1622 18.0097 11.4013 18.0086 11.5431 18.1555L13.0138 19.6274C13.9288 19.6488 14.8417 19.699 15.7566 19.7755L15.1422 19.0392C15.0102 18.8825 15.0339 18.644 15.1861 18.5182C15.3462 18.3892 15.5783 18.4073 15.7099 18.5646L16.802 19.8765C17.684 19.9727 18.5594 20.0946 19.4332 20.2438C14.8114 13.8452 8.27977 14.2672 2.25206 20.7378C2.07353 20.9321 2.14884 21.2497 2.39691 21.3382L2.39853 21.3396Z" fill="black"/>
<path d="M21.245 2.39525C23.1815 7.69508 28.1975 12.6828 21.0767 19.4439C20.9125 18.5424 20.7756 17.6345 20.6657 16.7258L21.7339 15.4174C21.8644 15.2594 21.8391 15.0256 21.6819 14.8995C21.5239 14.769 21.2873 14.7969 21.164 14.9515L20.5575 15.6886C20.4706 14.7961 20.413 13.9006 20.3815 13.002L21.821 11.5349C21.9607 11.387 21.962 11.1507 21.8136 11.0104C21.6685 10.8682 21.4376 10.8671 21.2925 11.0148L20.3595 11.9699C20.3532 11.6063 20.3519 11.2403 20.3554 10.875C20.365 10.2298 20.3946 9.58184 20.4292 8.93245L21.4259 8.06987L21.4344 8.06217C21.5815 7.92814 21.5977 7.69678 21.4639 7.54426C21.3301 7.39173 21.0957 7.37217 20.9404 7.50853L20.5028 7.8865C20.5614 7.19666 20.6302 6.50786 20.7195 5.82C20.7482 5.61945 20.6035 5.43457 20.3976 5.40554C20.1971 5.37677 20.0122 5.52146 19.9832 5.72739C19.8895 6.42745 19.8208 7.13787 19.7615 7.84386L19.3732 7.395C19.2369 7.23966 19.005 7.22292 18.8486 7.35815C18.6959 7.49732 18.6791 7.72919 18.8129 7.88171L19.6888 8.8931C19.6473 9.55189 19.622 10.2114 19.6119 10.8673C19.6061 11.2347 19.6096 11.6008 19.6132 11.9648L18.6683 11.0431C18.5232 10.9008 18.2894 10.9023 18.1472 11.0474C18.0049 11.1925 18.0062 11.4316 18.1546 11.5719L19.6414 13.0274C19.6722 13.9422 19.7317 14.8545 19.8176 15.7686L19.075 15.1618C18.917 15.0314 18.6788 15.0575 18.5545 15.211C18.4271 15.3724 18.4476 15.6044 18.6062 15.7343L19.9292 16.8129C20.0344 17.6939 20.1654 18.568 20.3234 19.4402C13.8779 14.8841 14.2331 8.34849 20.6417 2.25494C20.8342 2.07444 21.1526 2.1465 21.2436 2.39365L21.245 2.39525Z" fill="black"/>
<path d="M21.245 38.5641C23.1815 33.2643 28.1975 28.2765 21.0767 21.5154C20.9125 22.417 20.7756 23.3248 20.6657 24.2336L21.7339 25.5419C21.8644 25.7 21.8391 25.9338 21.6819 26.0598C21.5239 26.1903 21.2873 26.1625 21.164 26.0079L20.5575 25.2707C20.4706 26.1633 20.413 27.0588 20.3815 27.9574L21.821 29.4244C21.9607 29.5723 21.962 29.8087 21.8136 29.9489C21.6685 30.0912 21.4376 30.0922 21.2925 29.9446L20.3595 28.9894C20.3532 29.353 20.3519 29.7191 20.3554 30.0843C20.365 30.7295 20.3946 31.3775 20.4292 32.0269L21.4259 32.8895L21.4344 32.8972C21.5815 33.0312 21.5977 33.2626 21.4639 33.4151C21.3301 33.5676 21.0957 33.5872 20.9404 33.4508L20.5028 33.0728C20.5614 33.7627 20.6302 34.4515 20.7195 35.1393C20.7482 35.3399 20.6035 35.5248 20.3976 35.5538C20.1971 35.5826 20.0122 35.4379 19.9832 35.2319C19.8895 34.5319 19.8208 33.8215 19.7615 33.1155L19.3732 33.5643C19.2369 33.7197 19.005 33.7364 18.8486 33.6012C18.6959 33.462 18.6791 33.2301 18.8129 33.0776L19.6888 32.0662C19.6473 31.4074 19.622 30.7479 19.6119 30.092C19.6061 29.7246 19.6096 29.3585 19.6132 28.9945L18.6683 29.9163C18.5232 30.0585 18.2894 30.057 18.1472 29.9119C18.0049 29.7669 18.0062 29.5277 18.1546 29.3874L19.6414 27.9319C19.6722 27.0171 19.7317 26.1048 19.8176 25.1907L19.075 25.7975C18.917 25.928 18.6788 25.9018 18.5545 25.7484C18.4271 25.587 18.4476 25.355 18.6062 25.225L19.9292 24.1464C20.0344 23.2654 20.1654 22.3913 20.3234 21.5191C13.8779 26.0752 14.2331 32.6108 20.6417 38.7044C20.8342 38.8849 21.1526 38.8128 21.2436 38.5657L21.245 38.5641Z" fill="black"/>
</svg>
