<svg width="40" height="40" viewBox="0 0 40 40" fill="none" xmlns="http://www.w3.org/2000/svg">
<rect width="40" height="40" fill="white"/>
<path d="M19.4412 29.3708C18.373 30.3146 17.1046 31.1236 15.7026 31.7303C12.2312 33.1461 8.42586 32.809 5.35492 31.1236C6.2228 28.2247 8.15882 25.5955 10.896 24.0449C10.2951 23.573 9.69429 23.1011 9.16021 22.5618C6.02252 19.3933 4.62057 15.0787 5.08788 10.8989C8.22558 10.5618 11.43 11.3034 14.1672 13.0562C14.9015 8.60674 17.2381 4.69663 20.5093 2C23.8473 4.69663 26.1839 8.60674 26.8515 13.0562C29.5886 11.3034 32.7931 10.5618 35.9308 10.8989C36.3313 15.0787 34.9961 19.3933 31.8584 22.5618C31.3244 23.1011 30.7235 23.573 30.1227 24.0449C32.8598 25.6629 34.7959 28.2247 35.6637 31.1236C32.5928 32.809 28.7875 33.1461 25.2493 31.6629C23.9141 31.1236 22.5789 30.3146 21.5107 29.3034V38H19.4412V29.3708Z" fill="black"/>
<path d="M20 24V26H21V24C24.5 26 29.1667 26.3333 30.5 26C27.7 26.4 21 23.5 21 23C26.2 23 30.1667 20.3333 31.5 19C29.1 21 23.5 21.8333 21 22L20.5 11L20 22C17.6 22.8 11.6667 20.3333 9 19C11.8 21.8 17.5 22.8333 20 23C18 26 10.1082 25.8041 10.5 26C12.5 27 18.5 25.3333 20 24Z" fill="white"/>
</svg>
