<svg width="40" height="40" viewBox="0 0 40 40" fill="none" xmlns="http://www.w3.org/2000/svg">
<rect width="40" height="40" fill="white"/>
<path d="M20.5 27.5H19.5V25C16.7 28.2 10.8305 30.2169 8 30.5C12 30 17 27 19.5 24.5V23C13.1 21 9.16667 16.1667 8 14C10.8 18.8 16.8333 21.6667 19.5 22.5L20 6L20.5 22.5C24.5 21.7 30.1667 16.5 32.5 14C29.3 19.2 23.1667 22.1667 20.5 23V24.5C21.5 26.5 27 29 30.5 30C24.9 29.2 21.5 26.3333 20.5 25V27.5Z" fill="white"/>
<path fill-rule="evenodd" clip-rule="evenodd" d="M36.6313 18.7927C33.9228 14.9481 34.4046 11.6406 34.4094 11.6105C34.4575 11.3196 34.3195 11.0295 34.0629 10.8825C33.8062 10.7356 33.485 10.7627 33.257 10.9507C33.245 10.9605 32.0408 11.9489 30.5831 12.812C28.8477 13.8395 27.4642 14.259 26.7864 13.9636C26.4006 13.7954 26.1514 13.5258 26.0022 13.1152C25.426 11.5305 26.6104 8.56908 27.1151 7.56209C27.2184 7.35655 27.215 7.1139 27.1058 6.91133C26.9968 6.7089 26.7956 6.57185 26.5666 6.54407C21.6816 5.95063 21.1034 2.73572 21.082 2.60432C21.031 2.25728 20.7321 2 20.38 2C20.0278 2 19.729 2.25728 19.6779 2.60432C19.673 2.63768 19.1305 5.94427 14.1933 6.54407C13.9643 6.57185 13.7631 6.7089 13.6541 6.91133C13.545 7.1139 13.5415 7.35662 13.6448 7.56209C14.15 8.56738 15.3351 11.5245 14.7582 13.1142C14.609 13.5254 14.3596 13.7952 13.9735 13.9636C13.2976 14.2583 11.9191 13.8415 10.1907 12.8202C8.73141 11.9579 7.51485 10.9605 7.50293 10.9507C7.27559 10.7634 6.95602 10.7372 6.69981 10.8825C6.4436 11.0278 6.30446 11.3174 6.35015 11.6076C6.35143 11.6158 6.47765 12.449 6.26685 13.7454C5.91521 15.9077 4.91008 17.6836 4.12874 18.7927C4.00933 18.9621 3.97059 19.1752 4.0226 19.3756C4.07461 19.5761 4.21226 19.7437 4.39915 19.8343C4.40603 19.8376 5.10336 20.1788 5.86824 20.8169C6.54818 21.3841 7.40792 22.3013 7.64228 23.4487C7.88338 24.6294 7.4246 25.8927 6.27863 27.2034C6.08457 27.4253 6.04888 27.7439 6.18909 28.0029C6.32929 28.262 6.61623 28.4078 6.9087 28.368C6.9182 28.3668 7.87934 28.2515 9.00785 28.6056C10.5311 29.0836 11.624 30.1592 12.2561 31.8024C12.3496 32.0454 12.5698 32.2177 12.829 32.2505C13.0881 32.2831 13.3447 32.1717 13.4964 31.9597C14.4258 30.661 17.1882 27.4736 19.6704 26.9221V37.2932C19.6704 37.6836 19.9882 38 20.38 38C20.7718 38 21.0895 37.6836 21.0895 37.2932V26.9223C23.568 27.4746 26.3328 30.6614 27.2636 31.9597C27.3977 32.1471 27.6137 32.2562 27.8412 32.2562C27.871 32.2562 27.901 32.2544 27.931 32.2505C28.1902 32.2177 28.4104 32.0454 28.5039 31.8024C29.9951 27.9263 33.6973 28.3486 33.8513 28.368C34.1441 28.4076 34.4308 28.262 34.5709 28.0029C34.7111 27.7439 34.6754 27.4253 34.4814 27.2034C33.337 25.8946 32.878 24.6331 33.1167 23.4539C33.5683 21.2228 36.3341 19.8474 36.3609 19.8343C36.5477 19.7437 36.6854 19.5761 36.7374 19.3756C36.7894 19.1752 36.7507 18.9621 36.6313 18.7927Z" fill="black"/>
<path d="M20 22V24H21V22C24.5 24 29.1667 24.3333 30.5 24C27.7 24.4 21 21.5 21 21C26.2 21 30.1667 18.3333 31.5 17C29.1 19 23.5 19.8333 21 20L20.5 9L20 20C17.6 20.8 11.6667 18.3333 9 17C11.8 19.8 17.5 20.8333 20 21C18 24 10 24 10.5 24C12.5 24.5 18.5 23.3333 20 22Z" fill="white"/>
</svg>
