<svg width="40" height="40" viewBox="0 0 40 40" fill="none" xmlns="http://www.w3.org/2000/svg">
<rect width="40" height="40" fill="white"/>
<path d="M29.1536 16.5326C28.7027 17.8833 28.2649 19.2384 27.8402 20.5976C26.5027 21.4668 25.1753 22.3513 23.858 23.2508C23.114 23.7632 22.373 24.2834 21.6446 24.8294C21.2822 25.0988 20.927 25.3779 20.5796 25.6664L20.3642 17.3486C21.1784 15.491 22.1816 13.7168 23.2892 12.0062C24.4416 10.2325 25.6961 8.52719 27.0464 6.899L25.4786 15.2324C24.746 19.1336 27.0866 16.5776 27.0866 16.5776L30.6986 12.4022C30.3692 13.061 30.1292 13.7594 29.876 14.4482L29.1536 16.5326Z" fill="black"/>
<path d="M32.8904 17.3138L28.5662 20.1218C28.8487 18.9515 29.1405 17.7835 29.4416 16.6178L30.0158 14.4932C30.2222 13.79 30.4142 13.0802 30.6968 12.4016L31.1588 14.2682C31.4144 15.296 31.9112 15.3344 32.0942 15.311L37.304 14.2202C36.6398 14.8274 35.8778 15.3122 35.1398 15.8246L32.8904 17.3138ZM19.637 17.348L19.4204 25.6658C19.0732 25.3776 18.7184 25.0985 18.3566 24.8288C17.6264 24.2828 16.886 23.7626 16.142 23.2502C14.8252 22.3505 13.4981 21.4661 12.161 20.597C11.7354 19.238 11.2972 17.8829 10.8464 16.532L10.127 14.447C9.87258 13.7582 9.63258 13.0592 9.30318 12.401L12.9152 16.5764C12.9152 16.5764 15.2564 19.1324 14.5232 15.2312L12.953 6.89781L12.9572 6.89961C14.3072 8.52723 15.5615 10.2319 16.7138 12.005C17.8178 13.7162 18.8222 15.4904 19.637 17.348Z" fill="black"/>
<path d="M20.3318 16.1318L20 3.3734L19.6682 16.1318C18.8606 14.6378 17.942 13.2092 16.9586 11.837C15.721 10.115 14.3841 8.46665 12.9548 6.9002L15.854 8.348C16.019 8.4134 16.5914 8.4956 17.3492 7.052L20 2L22.6496 7.052C23.408 8.4956 23.9798 8.414 24.146 8.348L27.0452 6.8984C25.6156 8.46523 24.2786 10.114 23.0408 11.8364C22.0568 13.2092 21.1388 14.6378 20.3318 16.1318ZM10.5584 16.6178C10.8597 17.7833 11.1511 18.9514 11.4326 20.1218L7.1096 17.3138L4.85959 15.8246C4.12219 15.3122 3.3596 14.8274 2.6954 14.2202L7.90579 15.311C8.08639 15.3344 8.5868 15.296 8.8412 14.2682L9.3032 12.4016C9.587 13.0802 9.7778 13.79 9.9842 14.4932L10.5584 16.6178ZM31.6718 22.3004C29.9234 22.3742 28.1714 22.4132 26.4218 22.4366C27.1799 21.8704 27.9405 21.3076 28.7036 20.7482L33.062 17.5604L35.2274 15.947C35.9366 15.3938 36.6722 14.8652 37.304 14.2208L35.7584 19.703C35.693 20.0966 35.7218 20.6804 36.3692 20.9642L38 21.683C36.971 21.95 35.906 22.0238 34.8512 22.118C33.7928 22.1996 32.7326 22.256 31.6718 22.3004ZM14.4206 29.1932C15.6314 28.1126 16.8134 26.9936 18.029 25.9376C18.254 26.132 18.4814 26.3246 18.6944 26.5238C18.9452 26.7608 19.1924 27.0032 19.379 27.2408L19.274 31.2782C18.8714 31.2824 18.5384 31.2902 18.4052 31.3016L10.2254 32.5508C10.9952 32.0924 11.6984 31.5278 12.3908 30.9584C13.0789 30.3834 13.7556 29.7948 14.4206 29.1932Z" fill="black"/>
<path d="M5.13381 22.2662C6.18981 22.3988 7.24761 22.505 8.30721 22.6004C10.325 22.7798 12.3446 22.919 14.3672 23.0354C14.783 23.3492 15.2006 23.66 15.6116 23.9774C16.2827 24.4942 16.9442 25.0233 17.5958 25.5644C16.4426 26.687 15.347 27.8474 14.2148 28.976C13.5861 29.6119 12.945 30.2354 12.2918 30.8462C11.6342 31.451 10.9688 32.051 10.226 32.5514L10.9232 30.3728C11.243 29.3756 10.3184 28.4462 9.93621 28.1288C7.97781 26.4884 2.00001 21.683 2.00001 21.683C3.01701 21.9992 4.08141 22.1222 5.13381 22.2662ZM21.3044 26.5238C21.5174 26.3246 21.7448 26.1326 21.9698 25.9376C23.186 26.9936 24.3674 28.1126 25.5782 29.1932C26.2439 29.7943 26.921 30.3826 27.6092 30.9578C28.3016 31.5272 29.0036 32.0924 29.7746 32.5502L21.5948 31.301C21.4598 31.289 21.1274 31.2818 20.7248 31.2776L20.6198 27.2402C20.8076 27.0032 21.0548 26.7608 21.3044 26.5238Z" fill="black"/>
<path d="M6.938 17.5604L11.2964 20.7482C12.059 21.3082 12.8196 21.8711 13.5782 22.4366C11.8274 22.4132 10.0766 22.3742 8.32699 22.3004C7.26619 22.256 6.2072 22.1996 5.1488 22.1174C4.094 22.0238 3.029 21.95 1.99999 21.6824L3.63019 20.963C4.27699 20.6792 4.3076 20.096 4.241 19.7018L2.6954 14.2196C3.3272 14.864 4.064 15.3926 4.7732 15.9458L6.938 17.5604ZM25.7858 28.9754C24.6536 27.8468 23.558 26.687 22.4036 25.5638C23.0516 25.0238 23.717 24.4976 24.389 23.9768C24.8006 23.6594 25.2176 23.3486 25.6322 23.0348C27.6544 22.9217 29.6746 22.7767 31.6922 22.5998C32.7523 22.5073 33.8107 22.3959 34.8668 22.2656C35.9174 22.1222 36.983 21.9992 38 21.683C38 21.683 32.0222 26.489 30.0626 28.1282C29.6804 28.4456 28.757 29.375 29.0756 30.3722L29.774 32.5508C29.0312 32.0504 28.364 31.4504 27.707 30.8456C27.0543 30.2349 26.4138 29.6114 25.7858 28.9754ZM20.7248 31.2782L20.9 38H19.1L19.274 31.2782C19.7282 31.2728 20.2706 31.2728 20.7248 31.2782Z" fill="black"/>
</svg>
