<svg width="40" height="40" viewBox="0 0 40 40" fill="none" xmlns="http://www.w3.org/2000/svg">
<rect width="40" height="40" fill="white"/>
<path d="M36.0715 14.8306H33.0438C32.9088 14.8306 32.8005 14.7224 32.8005 14.5874C32.8005 13.8181 32.3885 13.1052 31.7219 12.7212C31.0539 12.3359 30.2327 12.3359 29.5647 12.7212L25.9928 14.78C25.907 14.8292 25.8002 14.8222 25.7228 14.7617C25.6441 14.7013 25.6103 14.5986 25.637 14.5044L27.5383 7.71081C27.7689 6.88814 27.4919 6.00923 26.8352 5.46642C26.177 4.9222 25.2616 4.81813 24.498 5.19783L23.9425 5.47486C23.8258 5.53392 23.6823 5.48892 23.6204 5.37501L22.3942 3.125C22.0173 2.43171 21.2903 2 20.5014 2C19.7111 2 18.9841 2.43171 18.6072 3.125L17.3809 5.37501H17.3795C17.3191 5.49033 17.1756 5.53533 17.0589 5.47486L16.5034 5.19783H16.502C15.7398 4.81813 14.8229 4.9222 14.1662 5.46502C13.5081 6.00923 13.2324 6.88814 13.4617 7.71081L15.3629 14.5073C15.3897 14.6015 15.3559 14.7042 15.2786 14.7646C15.1998 14.8251 15.0929 14.8321 15.0071 14.7829L11.4338 12.7213C10.7673 12.336 9.94462 12.336 9.27805 12.7213C8.61006 13.1066 8.19944 13.8182 8.19804 14.5888C8.19804 14.7224 8.08976 14.8307 7.95616 14.8321H4.92848C4.11988 14.8321 3.38018 15.2835 3.01035 16.0035C2.64052 16.7221 2.70519 17.587 3.17488 18.2451L5.11832 20.9549C5.19566 21.0632 5.17176 21.2123 5.06629 21.2924L4.82019 21.471C4.21269 21.9154 3.8808 22.6425 3.94409 23.392C4.00597 24.1415 4.45458 24.8039 5.12533 25.1414L11.3199 28.252C11.4169 28.3012 11.4689 28.4081 11.4493 28.515L11.0513 30.5892H11.0527C10.9219 31.2712 11.1258 31.973 11.6025 32.4778C12.0792 32.9812 12.7683 33.2259 13.4559 33.1345L19.5436 32.3245V37.0423H19.5422C19.5422 37.5711 19.9711 38 20.4998 38C21.0286 38 21.4575 37.5711 21.4575 37.0423V32.3245L27.5437 33.1345C28.2314 33.2259 28.9218 32.9812 29.3971 32.4778C29.8738 31.973 30.0777 31.2712 29.947 30.5892L29.5504 28.5164C29.5307 28.4095 29.5827 28.3026 29.6798 28.2534L35.8743 25.1428C36.5465 24.8053 36.9937 24.1429 37.057 23.3934C37.1189 22.6439 36.787 21.9168 36.1795 21.4724L35.9348 21.2939V21.2953C35.8279 21.2151 35.804 21.0646 35.8814 20.9563L37.8248 18.2437H37.8234C38.2959 17.587 38.3592 16.7207 37.9893 16.0021C37.6209 15.2821 36.8801 14.8306 36.0715 14.8306Z" fill="black"/>
<path d="M20 27V29H21V27C27.8 23.4 32.5 18.5 32 18C31.5 19.0469 24 25 21 26L20.5 7.5L20.25 16.75L20 26C18 25.6 11.5 20.5 9 19.5C9.4 20.7 16.5 25 20 27Z" fill="white"/>
</svg>
