<svg width="40" height="40" viewBox="0 0 40 40" fill="none" xmlns="http://www.w3.org/2000/svg">
<rect width="40" height="40" fill="white"/>
<circle cx="20" cy="20" r="15" stroke="black" stroke-width="1.3"/>
<rect x="17" y="3" width="6" height="4" fill="white"/>
<rect x="17" y="33" width="6" height="4" fill="white"/>
<rect x="33" y="17" width="4" height="6" fill="white"/>
<rect x="3" y="17" width="4" height="6" fill="white"/>
<path d="M18 5.17581H19.4194V2.01065L20.1326 2V5.17581H21.5484L19.7742 6.95L18 5.17581Z" fill="black"/>
<path d="M35.0734 22V20.5806H38.2385L38.2492 19.8674H35.0734V18.4516L33.2992 20.2258L35.0734 22Z" fill="black"/>
<path d="M5.47501 18V19.4194H2.30985L2.29921 20.1326H5.47501V21.5484L7.24921 19.7742L5.47501 18Z" fill="black"/>
<path d="M22 34.7742H20.5806V37.9394L19.8674 37.95V34.7742H18.4516L20.2258 33L22 34.7742Z" fill="black"/>
<circle cx="20" cy="20" r="9.5" fill="black" stroke="black"/>
<circle cx="20" cy="20" r="2" fill="white"/>
<path d="M14.9932 16.2694C14.9649 16.203 14.9374 16.1364 14.9014 16.0703C14.8734 16.0131 14.843 15.9577 14.8094 15.9031C14.6037 15.5534 14.2364 15.1145 13.6368 14.8522C13.7046 15.4324 13.4284 16.4157 13.0269 18.0362C12.694 19.2912 13.1987 20.0644 13.484 20.3857C13.4711 20.1282 13.484 19.7791 13.581 19.364C13.627 19.1729 13.6788 18.987 13.7295 18.8066C13.8572 18.3505 13.9818 17.9186 13.9569 17.5926C13.9492 17.4908 14.0213 17.3986 14.1179 17.3864C14.213 17.3732 14.2999 17.4462 14.3076 17.5483C14.3378 17.9469 14.2022 18.4142 14.063 18.9077C14.0132 19.0845 13.9617 19.2672 13.9166 19.4534C13.8048 19.9262 13.8151 20.2997 13.8414 20.5287C13.8716 20.5375 13.9018 20.5457 13.932 20.5555C14.2585 20.4333 14.5713 20.0929 14.8147 19.5839C15.2624 18.6485 15.3827 17.3873 15.0995 16.5511C15.066 16.4519 15.0334 16.3597 14.9932 16.2694ZM19.1369 12C18.7814 12.4336 17.9542 12.8389 16.4147 13.6473C15.3848 14.233 15.1434 15.0142 15.1405 15.6176C15.3278 15.4187 15.5861 15.1941 15.9339 14.994C16.0843 14.9083 16.2362 14.8278 16.3847 14.7497C16.8229 14.519 17.2394 14.3054 17.4608 14.0546C17.5278 13.9786 17.6447 13.9664 17.7226 14.0265C17.8 14.0869 17.8093 14.1976 17.7422 14.274C17.4718 14.582 17.0214 14.8146 16.5476 15.0647C16.402 15.1416 16.2527 15.2209 16.1059 15.3045C15.7106 15.5325 15.4435 15.7944 15.2756 15.9984C15.2818 16.0123 15.2885 16.0253 15.2948 16.0389C15.7312 16.2054 16.3852 16.1422 17.066 15.8619C17.9614 15.4937 18.6832 14.8398 18.9802 14.1358C19.015 14.0531 19.0452 13.9726 19.0722 13.8888C19.1 13.8095 19.1252 13.7285 19.1448 13.6483C19.163 13.5805 19.1771 13.5146 19.1896 13.4473C19.3091 12.8235 19.2258 12.3104 19.1369 12ZM25.1484 13.638C24.5685 13.7055 23.5863 13.4296 21.9667 13.0284C20.7127 12.6971 19.9394 13.1991 19.617 13.4852C19.8757 13.4722 20.2249 13.4852 20.6391 13.5822C20.8284 13.6277 21.0128 13.6794 21.1915 13.7293C21.6491 13.8577 22.0802 13.9827 22.4082 13.9578C22.5081 13.9482 22.602 14.0217 22.6144 14.1185C22.6267 14.2153 22.5541 14.3003 22.4523 14.3082C22.4063 14.3118 22.3598 14.313 22.3121 14.3123C21.9461 14.307 21.5283 14.1863 21.0904 14.0627C20.9148 14.0129 20.7335 13.9621 20.5498 13.9173C20.0774 13.8057 19.7015 13.816 19.4713 13.8423C19.4624 13.8723 19.4545 13.9017 19.445 13.931C19.5655 14.2567 19.9035 14.5686 20.4089 14.8122C21.3446 15.2628 22.6092 15.3838 23.4498 15.0997C23.5362 15.0712 23.6366 15.0369 23.7312 14.994C23.7976 14.9658 23.8642 14.938 23.9301 14.9023C23.9871 14.8743 24.0422 14.8441 24.0973 14.8101C24.447 14.6048 24.8861 14.238 25.1484 13.638ZM28 19.1369C27.5683 18.781 27.1623 17.9538 26.3529 16.4162C25.7676 15.3876 24.9884 15.1457 24.384 15.1421C24.5735 15.3205 24.8025 15.5797 25.0063 15.9352C25.0919 16.0856 25.1721 16.2373 25.2502 16.3855C25.4809 16.8239 25.6948 17.2407 25.9456 17.462C26.0216 17.5291 26.034 17.6458 25.9736 17.7236C25.9396 17.7675 25.8896 17.7895 25.8388 17.7883C25.7993 17.7873 25.7597 17.7725 25.7262 17.7435C25.4177 17.4731 25.1851 17.0222 24.935 16.5484C24.8583 16.4028 24.779 16.2538 24.6954 16.1067C24.4575 15.6928 24.1845 15.4257 24.0019 15.2769C23.9883 15.2834 23.9748 15.2901 23.961 15.2959C23.794 15.7323 23.8575 16.3865 24.1382 17.0673C24.5062 17.9625 25.1606 18.684 25.8656 18.9817C25.9456 19.0162 26.0254 19.0464 26.1076 19.0725C26.1904 19.1008 26.2709 19.1242 26.3521 19.1458C26.4199 19.1645 26.4877 19.1781 26.555 19.1903C27.1748 19.3101 27.6886 19.226 28 19.1369ZM25.0056 23.7325C25.0346 23.8006 25.0655 23.8681 25.0976 23.9316C25.1256 23.9886 25.1558 24.0435 25.1898 24.0988C25.3959 24.4485 25.7626 24.8874 26.3624 25.1499C26.2949 24.5695 26.5708 23.5867 26.9723 21.9657C27.3043 20.7141 26.8032 19.9416 26.5177 19.6186C26.5308 19.8745 26.5177 20.2211 26.4185 20.6379C26.3725 20.8286 26.3208 21.0147 26.2702 21.1944C26.1423 21.6507 26.018 22.0828 26.0429 22.4091C26.0505 22.5109 25.9787 22.6031 25.8819 22.6153C25.8764 22.616 25.8704 22.6163 25.8649 22.6165C25.7753 22.6189 25.6994 22.549 25.6919 22.4532C25.662 22.0543 25.7971 21.5867 25.9365 21.093C25.9866 20.9165 26.0378 20.734 26.0829 20.5476C26.1993 20.0618 26.1837 19.6831 26.1586 19.473C26.1282 19.4641 26.0975 19.4558 26.0671 19.4459C25.741 19.5686 25.4284 19.9095 25.1851 20.419C24.7373 21.3549 24.6171 22.6156 24.9002 23.4508C24.9333 23.5515 24.9685 23.6446 25.0056 23.7325ZM20.8636 28C21.2195 27.5671 22.0467 27.1618 23.5841 26.3543C24.6128 25.7691 24.8547 24.9887 24.8581 24.3855C24.6796 24.575 24.4206 24.8038 24.0649 25.0074C23.9121 25.0946 23.7578 25.1768 23.6067 25.256C23.1714 25.485 22.7575 25.698 22.5378 25.9471C22.5004 25.99 22.4463 26.0125 22.3931 26.0132C22.3517 26.0137 22.3102 26.0013 22.2764 25.9751C22.1988 25.9148 22.1897 25.8044 22.2566 25.7277C22.5256 25.4213 22.973 25.1897 23.444 24.9413C23.5923 24.863 23.7437 24.7827 23.8936 24.6967C24.3078 24.4588 24.5742 24.186 24.7234 24.0035C24.7172 23.9898 24.7105 23.9764 24.7045 23.9625C24.2688 23.796 23.6162 23.8593 22.9371 24.1386C22.0412 24.5068 21.318 25.1612 21.0186 25.8676C20.9841 25.9478 20.9541 26.0276 20.9278 26.1093C20.8997 26.1922 20.8763 26.2729 20.8545 26.3541C20.836 26.4219 20.8224 26.4894 20.8099 26.5568C20.6906 27.1741 20.7745 27.6881 20.8636 28ZM14.8504 26.3637C15.4311 26.2957 16.4139 26.5718 18.0347 26.9733C19.2885 27.3058 20.062 26.8023 20.3835 26.517C20.3332 26.5196 20.2803 26.5213 20.223 26.5213C19.9875 26.5215 19.6958 26.4976 19.3621 26.4195C19.1716 26.3735 18.986 26.3218 18.8063 26.2715C18.3497 26.1435 17.9166 26.0185 17.5908 26.0437C17.4864 26.0525 17.3968 25.9795 17.3846 25.8827C17.3721 25.7859 17.445 25.7009 17.5468 25.6932C17.9468 25.6637 18.4132 25.7986 18.9074 25.9383C19.0837 25.9881 19.2663 26.0393 19.4514 26.0844C19.9248 26.1962 20.2985 26.1859 20.527 26.1596C20.5356 26.1294 20.544 26.0992 20.5538 26.0688C20.4314 25.7423 20.091 25.4297 19.5822 25.1863C18.647 24.7386 17.3853 24.6184 16.5495 24.9018C16.4504 24.9346 16.3584 24.9669 16.2678 25.0072C16.2005 25.0357 16.1353 25.0639 16.0687 25.0989C16.0115 25.1272 15.9566 25.1571 15.9015 25.1909C15.5518 25.3971 15.1129 25.7636 14.8504 26.3637ZM13.6455 23.5855C14.2328 24.615 15.014 24.8565 15.616 24.8598C15.4172 24.6728 15.1925 24.4145 14.9922 24.0665C14.9065 23.9158 14.826 23.7637 14.7476 23.6152C14.5169 23.1773 14.3033 22.7607 14.0527 22.5396C13.977 22.4726 13.9643 22.3559 14.0247 22.2778C14.0853 22.2 14.1962 22.1911 14.2721 22.2579C14.5802 22.5281 14.8128 22.9785 15.0626 23.452C15.1398 23.5979 15.2188 23.7474 15.3029 23.8945C15.531 24.2904 15.7928 24.5566 15.9966 24.7245C16.0101 24.7183 16.0237 24.7116 16.0371 24.7056C16.2041 24.2691 16.1406 23.6149 15.8599 22.9342C15.4919 22.0387 14.8377 21.3172 14.1325 21.0195C14.052 20.985 13.9725 20.9551 13.8905 20.9287C13.8076 20.9004 13.7272 20.877 13.6464 20.8554C13.5782 20.8372 13.5104 20.8228 13.443 20.8109C12.8269 20.6918 12.3124 20.7756 12 20.8645C12.4329 21.2214 12.8382 22.0483 13.6455 23.5855Z" fill="white"/>
<circle cx="20" cy="20" r="11.25" stroke="black" stroke-width="0.5" stroke-miterlimit="16" stroke-linecap="square" stroke-dasharray="2 2"/>
</svg>
