<svg width="40" height="40" viewBox="0 0 40 40" fill="none" xmlns="http://www.w3.org/2000/svg">
<rect width="40" height="40" fill="white"/>
<circle cx="20" cy="20" r="4.5" fill="black" stroke="black"/>
<path d="M25.3061 15.5416C28.7307 13.6623 33.6179 13.3492 32.9885 6.58041C32.4921 6.9754 32.007 7.38611 31.5355 7.80959L31.4959 8.97827C31.4919 9.12008 31.3721 9.23041 31.2328 9.22449C31.091 9.22044 30.9803 9.09808 30.9866 8.96135L31.0065 8.30076C30.5544 8.7263 30.1162 9.16672 29.6903 9.62064L29.7718 11.0412C29.7772 11.182 29.6701 11.3057 29.5289 11.3112C29.3885 11.3192 29.2676 11.2145 29.2593 11.0714L29.2084 10.1484C29.0394 10.335 28.8719 10.5252 28.7073 10.7172C28.4182 11.0577 28.1383 11.4089 27.8604 11.7631L27.9867 12.6669L27.9876 12.6748C28.0032 12.8117 27.9061 12.9396 27.7669 12.9581C27.6277 12.9766 27.4966 12.88 27.4778 12.7381L27.422 12.3417C27.1382 12.7279 26.8601 13.1182 26.5931 13.5174C26.5167 13.635 26.357 13.6654 26.2365 13.5867C26.1189 13.5103 26.0885 13.3506 26.1672 13.23C26.4375 12.8226 26.7254 12.421 27.0163 12.0261L26.6094 12.083C26.4675 12.1018 26.3391 12.0049 26.3192 11.8631C26.303 11.721 26.4 11.5925 26.5392 11.574L27.4566 11.4462C27.7353 11.0839 28.0226 10.7287 28.3163 10.3823C28.4807 10.1882 28.6494 9.99899 28.8172 9.81094L27.9047 9.86064C27.7642 9.86866 27.6431 9.76131 27.6351 9.62088C27.6271 9.48045 27.7367 9.35638 27.878 9.35094L29.3162 9.27007C29.7492 8.80738 30.196 8.35908 30.6573 7.92185L29.9938 7.89963C29.852 7.89558 29.7398 7.7734 29.745 7.63679C29.7521 7.49463 29.8686 7.38309 30.0104 7.38765L31.1915 7.42852C31.6478 7.01738 32.1144 6.62152 32.5943 6.23905C27.1589 5.67571 24.3653 9.24344 24.9278 15.3398C24.9458 15.5216 25.1446 15.6291 25.3046 15.5418L25.3061 15.5416Z" fill="black"/>
<path d="M21.0001 14.1548C22.0888 10.4032 25.319 6.72243 20.0829 2.387C20.0119 3.01744 19.96 3.65093 19.9267 4.28378L20.7261 5.13728C20.8236 5.24031 20.8171 5.403 20.7145 5.49746C20.6115 5.59498 20.4467 5.58687 20.3543 5.48589L19.9007 5.00522C19.8827 5.6258 19.885 6.24704 19.9054 6.86919L20.9686 7.81489C21.072 7.91046 21.084 8.07367 20.9881 8.1775C20.8946 8.28257 20.7351 8.29414 20.628 8.19899L19.9387 7.58309C19.9514 7.83451 19.9677 8.08741 19.9873 8.33954C20.0242 8.78471 20.0752 9.2309 20.1296 9.67782L20.8585 10.2268L20.8647 10.2317C20.9727 10.3174 20.9947 10.4764 20.9095 10.588C20.8242 10.6997 20.6632 10.7242 20.5495 10.6373L20.2295 10.3968C20.3024 10.8705 20.3823 11.3431 20.4763 11.814C20.5056 11.9512 20.4143 12.0857 20.2734 12.1154C20.1363 12.1447 20.0018 12.0534 19.972 11.9125C19.8745 11.4334 19.7936 10.9459 19.7195 10.4611L19.4724 10.7894C19.3855 10.9031 19.2261 10.9255 19.1118 10.8395C18.9997 10.7505 18.9773 10.5911 19.0625 10.4795L19.62 9.73978C19.5604 9.2867 19.5119 8.83234 19.4741 8.37976C19.4529 8.12631 19.4381 7.87325 19.4234 7.62167L18.8141 8.30272C18.7206 8.40779 18.559 8.41772 18.454 8.32421C18.3489 8.2307 18.3385 8.06542 18.4344 7.96159L19.393 6.88638C19.3713 6.25308 19.3696 5.62013 19.3859 4.98474L18.9015 5.43874C18.7985 5.53627 18.6328 5.52939 18.5397 5.42925C18.4441 5.32374 18.4474 5.16255 18.5508 5.06535L19.414 4.25817C19.4453 3.64472 19.4946 3.03481 19.5628 2.42496C15.3249 5.87474 15.8772 10.3723 20.59 14.2801C20.7315 14.3957 20.948 14.331 20.9993 14.156L21.0001 14.1548Z" fill="black"/>
<path d="M14.6469 15.6575C11.0317 14.1776 6.14047 14.419 6.00045 7.62249C6.5384 7.95881 7.06683 8.31203 7.58313 8.67949L7.75464 9.8362C7.77469 9.97663 7.90614 10.0727 8.04393 10.0511C8.18436 10.031 8.28045 9.89694 8.2588 9.76179L8.16434 9.10768C8.66163 9.47937 9.14677 9.86743 9.62133 10.2703L9.70096 11.691C9.71151 11.8314 9.83187 11.9423 9.97283 11.9317C10.1133 11.9238 10.2215 11.8061 10.2136 11.663L10.1598 10.7402C10.3488 10.9065 10.5367 11.0765 10.722 11.2486C11.0477 11.5543 11.3655 11.8716 11.6817 12.1921L11.6584 13.1044L11.6584 13.1123C11.6584 13.2501 11.7693 13.3662 11.9097 13.3689C12.0502 13.3715 12.1695 13.2606 12.1721 13.1176L12.1827 12.7174C12.5084 13.069 12.8288 13.4254 13.1392 13.7918C13.2285 13.9 13.3905 13.9122 13.5014 13.8203C13.6096 13.7311 13.6218 13.569 13.5299 13.4582C13.2153 13.0839 12.8838 12.7174 12.5502 12.3579L12.9609 12.3685C13.104 12.3711 13.2206 12.2603 13.2243 12.1172C13.2244 11.9741 13.1135 11.8575 12.9731 11.8548L12.0471 11.8315C11.7293 11.5031 11.4036 11.1827 11.0726 10.8717C10.8873 10.6975 10.6983 10.5285 10.5104 10.3606L11.4226 10.3068C11.5631 10.2989 11.6713 10.1786 11.6634 10.0381C11.6555 9.8977 11.5324 9.78683 11.3915 9.79739L9.95336 9.87966C9.47086 9.4689 8.9762 9.07399 8.4684 8.69172L9.12515 8.59462C9.26559 8.57457 9.36326 8.44049 9.34268 8.30533C9.31946 8.1649 9.19118 8.06723 9.05074 8.08781L7.8819 8.26196C7.38197 7.90505 6.8736 7.5645 6.35355 7.23874C11.6904 6.06441 14.8695 9.29339 15 15.4142C15.0026 15.5969 14.8173 15.7262 14.6483 15.6576L14.6469 15.6575Z" fill="black"/>
<path d="M14.2225 20.6345C10.5541 21.9772 7.10291 25.4517 2.41947 20.5244C3.04357 20.4104 3.67202 20.3153 4.30112 20.2388L5.2073 20.9779C5.31675 21.0681 5.47862 21.0506 5.56584 20.9417C5.65609 20.8323 5.63673 20.6684 5.52966 20.5832L5.01909 20.1635C5.63698 20.1031 6.25693 20.0629 6.87902 20.0407L7.89522 21.0367C7.99765 21.1334 8.16129 21.1342 8.25832 21.0314C8.35675 20.9309 8.35738 20.771 8.25513 20.6706L7.59352 20.0251C7.84522 20.0206 8.09864 20.0195 8.35153 20.0218C8.79818 20.0282 9.2468 20.0485 9.6964 20.0722L10.2939 20.7619L10.2993 20.7678C10.3921 20.8696 10.5523 20.8807 10.6578 20.788C10.7634 20.6953 10.7768 20.533 10.6824 20.4255L10.4205 20.1227C10.8981 20.163 11.375 20.2104 11.8513 20.272C11.9901 20.2918 12.1181 20.1916 12.1381 20.049C12.1579 19.9101 12.0577 19.7822 11.9151 19.7622C11.4304 19.6976 10.9386 19.6503 10.4498 19.6095L10.7604 19.3405C10.8679 19.2461 10.8794 19.0856 10.7857 18.9774C10.6893 18.8716 10.5288 18.8601 10.4232 18.9528L9.72336 19.5596C9.26726 19.5311 8.81065 19.5138 8.35655 19.5071C8.10223 19.5032 7.84875 19.5058 7.59676 19.5084L8.23454 18.8539C8.33297 18.7534 8.33182 18.5915 8.23134 18.4931C8.13086 18.3947 7.96527 18.3957 7.86824 18.4985L6.86111 19.5284C6.22782 19.55 5.59622 19.5916 4.96344 19.6513L5.38325 19.137C5.4735 19.0276 5.4553 18.8627 5.34902 18.7767C5.23723 18.6886 5.07664 18.7029 4.98674 18.8127L4.2405 19.729C3.63062 19.8022 3.02552 19.8932 2.42176 20.0029C5.57356 15.5389 10.0983 15.7823 14.3194 20.2168C14.4444 20.35 14.3946 20.5704 14.2236 20.6335L14.2225 20.6345Z" fill="black"/>
<path d="M26.2735 20.6345C29.9419 21.9772 33.3931 25.4517 38.0765 20.5244C37.4524 20.4104 36.8239 20.3153 36.1949 20.2388L35.2887 20.9779C35.1792 21.0681 35.0173 21.0506 34.9301 20.9417C34.8399 20.8323 34.8592 20.6684 34.9663 20.5832L35.4769 20.1635C34.859 20.1031 34.239 20.0629 33.617 20.0407L32.6007 21.0367C32.4983 21.1334 32.3347 21.1342 32.2376 21.0314C32.1392 20.9309 32.1386 20.771 32.2408 20.6706L32.9025 20.0251C32.6508 20.0206 32.3973 20.0195 32.1444 20.0218C31.6978 20.0282 31.2492 20.0485 30.7996 20.0722L30.202 20.7619L30.1967 20.7678C30.1039 20.8696 29.9437 20.8807 29.8381 20.788C29.7326 20.6953 29.7191 20.533 29.8136 20.4255L30.0754 20.1227C29.5978 20.163 29.1209 20.2104 28.6447 20.272C28.5058 20.2918 28.3779 20.1916 28.3579 20.049C28.338 19.9101 28.4383 19.7822 28.5809 19.7622C29.0656 19.6976 29.5574 19.6503 30.0462 19.6095L29.7356 19.3405C29.6281 19.2461 29.6166 19.0856 29.7103 18.9774C29.8067 18.8716 29.9672 18.8601 30.0728 18.9528L30.7726 19.5596C31.2287 19.5311 31.6853 19.5138 32.1394 19.5071C32.3937 19.5032 32.6472 19.5058 32.8992 19.5084L32.2614 18.8539C32.163 18.7534 32.1642 18.5915 32.2646 18.4931C32.3651 18.3947 32.5307 18.3957 32.6277 18.4985L33.6349 19.5284C34.2682 19.55 34.8997 19.5916 35.5325 19.6513L35.1127 19.137C35.0225 19.0276 35.0407 18.8627 35.1469 18.7767C35.2587 18.6886 35.4193 18.7029 35.5092 18.8127L36.2555 19.729C36.8654 19.8022 37.4705 19.8932 38.0742 20.0029C34.9224 15.5389 30.3976 15.7823 26.1766 20.2168C26.0516 20.35 26.1013 20.5704 26.2724 20.6335L26.2735 20.6345Z" fill="black"/>
<path d="M20.2191 25.9475C21.8206 29.5105 25.533 32.7044 20.9532 37.7282C20.7949 37.1138 20.655 36.4938 20.5338 35.8718L21.2062 34.915C21.2884 34.7994 21.2593 34.6392 21.1445 34.56C21.0289 34.4778 20.8668 34.5089 20.7894 34.6217L20.4074 35.161C20.3029 34.549 20.2185 33.9335 20.1519 33.3146L21.0727 32.2298C21.1618 32.1207 21.1509 31.9574 21.0414 31.868C20.9342 31.777 20.7746 31.7878 20.6818 31.897L20.0852 32.6031C20.0627 32.3523 20.0436 32.0996 20.0278 31.8472C20.0022 31.4013 19.9904 30.9523 19.9818 30.5022L20.6271 29.8569L20.6325 29.8511C20.7274 29.7512 20.7271 29.5907 20.6271 29.492C20.5271 29.3934 20.3642 29.3916 20.2638 29.4935L19.9805 29.7763C19.9865 29.297 19.9997 28.818 20.027 28.3386C20.0369 28.1986 19.9277 28.0782 19.7841 28.0684C19.6442 28.0586 19.5237 28.1677 19.514 28.3113C19.4842 28.7994 19.4722 29.2934 19.4665 29.7838L19.176 29.4933C19.0741 29.3928 18.9131 29.3928 18.8119 29.494C18.7133 29.5977 18.7134 29.7586 18.8133 29.8573L19.4686 30.512C19.4728 30.9689 19.4882 31.4256 19.514 31.879C19.5283 32.133 19.549 32.3856 19.5696 32.6368L18.8712 32.0474C18.7639 31.9565 18.6025 31.9692 18.5116 32.0764C18.4206 32.1837 18.4334 32.3488 18.5428 32.4382L19.6421 33.3691C19.709 33.9993 19.7956 34.6263 19.9005 35.2531L19.3575 34.8712C19.2418 34.789 19.0787 34.8189 19.0005 34.9311C18.9206 35.0489 18.9463 35.2081 19.0623 35.2899L20.0297 35.9687C20.1463 36.5718 20.2803 37.1688 20.4329 37.7632C15.755 34.9386 15.6742 30.408 19.7955 25.8807C19.9194 25.7465 20.1428 25.7804 20.218 25.9465L20.2191 25.9475Z" fill="black"/>
<path d="M24.7211 24.3231C28.3363 25.8031 33.2275 25.5616 33.3675 32.3581C32.8296 32.0218 32.3012 31.6686 31.7848 31.3011L31.6133 30.1444C31.5933 30.004 31.4618 29.9079 31.3241 29.9295C31.1836 29.9496 31.0875 30.0837 31.1092 30.2188L31.2036 30.8729C30.7063 30.5013 30.2212 30.1132 29.7467 29.7104L29.667 28.2896C29.6565 28.1492 29.5361 28.0383 29.3952 28.0489C29.2547 28.0568 29.1465 28.1745 29.1544 28.3176L29.2082 29.2404C29.0192 29.0741 28.8313 28.9041 28.646 28.732C28.3203 28.4263 28.0025 28.109 27.6863 27.7885L27.7095 26.8763L27.7095 26.8683C27.7095 26.7306 27.5987 26.6144 27.4583 26.6118C27.3178 26.6091 27.1985 26.72 27.1959 26.863L27.1853 27.2632C26.8596 26.9116 26.5391 26.5552 26.2287 26.1888C26.1395 26.0806 25.9774 26.0684 25.8666 26.1603C25.7583 26.2495 25.7462 26.4116 25.838 26.5225C26.1527 26.8968 26.4842 27.2632 26.8178 27.6227L26.4071 27.6121C26.264 27.6095 26.1473 27.7203 26.1436 27.8634C26.1436 28.0065 26.2545 28.1232 26.3949 28.1258L27.3209 28.1491C27.6387 28.4775 27.9644 28.798 28.2954 29.1089C28.4807 29.2832 28.6697 29.4521 28.8576 29.62L27.9454 29.6738C27.8049 29.6817 27.6967 29.8021 27.7046 29.9425C27.7125 30.0829 27.8355 30.1938 27.9765 30.1832L29.4146 30.101C29.8971 30.5117 30.3918 30.9066 30.8996 31.2889L30.2428 31.386C30.1024 31.4061 30.0047 31.5401 30.0253 31.6753C30.0485 31.8157 30.1768 31.9134 30.3172 31.8928L31.4861 31.7187C31.986 32.0756 32.4944 32.4161 33.0144 32.7419C27.6776 33.9162 24.4985 30.6872 24.368 24.5664C24.3654 24.3837 24.5507 24.2544 24.7196 24.3231L24.7211 24.3231Z" fill="black"/>
<path d="M16.2351 24.6413C14.2245 27.9905 13.7221 32.8618 6.98277 31.9705C7.39672 31.4897 7.82592 31.0209 8.26737 30.5662L9.43671 30.5719C9.57856 30.5734 9.69345 30.458 9.69294 30.3185C9.69439 30.1767 9.57641 30.0614 9.43954 30.0623L8.77868 30.0566C9.22143 29.6214 9.67851 29.2006 10.1486 28.7926L11.565 28.9291C11.7054 28.94 11.8332 28.8378 11.8441 28.6969C11.8576 28.5568 11.7576 28.432 11.615 28.4182L10.6947 28.3315C10.8877 28.1699 11.0842 28.0099 11.2824 27.8528C11.6339 27.5772 11.9957 27.3112 12.3604 27.0471L13.2586 27.2084L13.2664 27.2096C13.4026 27.2305 13.5342 27.1385 13.5581 27.0001C13.582 26.8617 13.4905 26.7269 13.3495 26.7026L12.9556 26.6315C13.3525 26.3629 13.7533 26.1001 14.1625 25.8488C14.283 25.777 14.3196 25.6187 14.2456 25.4952C14.1738 25.3747 14.0154 25.3381 13.8919 25.4121C13.4742 25.6664 13.0618 25.9385 12.6559 26.2139L12.7286 25.8095C12.7529 25.6685 12.661 25.5363 12.5201 25.511C12.3787 25.4893 12.2466 25.5812 12.2227 25.7196L12.0594 26.6314C11.6866 26.8958 11.3205 27.1692 10.963 27.4492C10.7627 27.606 10.567 27.7672 10.3726 27.9275L10.4577 27.0176C10.4711 26.8776 10.3685 26.7524 10.2285 26.7389C10.0885 26.7255 9.9603 26.8303 9.94938 26.9712L9.8128 28.4052C9.33368 28.8199 8.86838 29.249 8.41359 29.693L8.41712 29.0291C8.41858 28.8873 8.30084 28.7704 8.16413 28.7703C8.0218 28.772 7.90582 28.884 7.90488 29.0259L7.89993 30.2076C7.47139 30.6477 7.05775 31.0986 6.65696 31.5633C6.3048 26.1101 9.97817 23.457 16.0481 24.2554C16.229 24.2805 16.3288 24.4833 16.2354 24.6398L16.2351 24.6413Z" fill="black"/>
</svg>
